<svg xmlns="http://www.w3.org/2000/svg" height="20px" viewBox="0 -960 960 960" width="20px" fill="#4B77D1"><path d="M288-96q-33 0-52.5-19.5T216-168v-624q0-33 19.5-52.5T288-864h210.37q13.63 0 26.63 5 13 5 24 16l174 174q11 11 16 23.89t5 27.11v450q0 33-19.5 52.5T672-96H288Zm144-696H288v624h384v-408H540q-45 0-76.5-31.5T432-684v-108Zm72 6v102.48q0 14.52 10.35 25.02T540-648h102L504-786ZM396-240q-15.3 0-25.65-10.29Q360-260.58 360-275.79t10.35-25.71Q380.7-312 396-312h96q15.3 0 25.65 10.29Q528-291.42 528-276.21t-10.35 25.71Q507.3-240 492-240h-96Zm0-144q-15.3 0-25.65-10.29Q360-404.58 360-419.79t10.35-25.71Q380.7-456 396-456h168q15.3 0 25.65 10.29Q600-435.42 600-420.21t-10.35 25.71Q579.3-384 564-384H396Z"/></svg>