<svg xmlns="http://www.w3.org/2000/svg" height="20px" viewBox="0 -960 960 960" width="20px" fill="#4B77D1"><path d="M830.29-115H650.87q-10.87 0-18.37-7.67-7.5-7.67-7.5-18.5t7.67-18.33q7.67-7.5 18.51-7.5H764l-95.86-70.94Q660-244 658-254.29q-2-10.29 4-18.71 6.3-9.29 16.65-11.14 10.35-1.86 19.46 5.12L791-211l-41.19-118.12Q747-338 751.5-346q4.5-8 12.5-12 9.63-5 18.81-.5 9.19 4.5 12.93 14.4L836-228l30-120q2.48-10 10.74-15t17.93-2.36q9.66 2.64 14.5 11Q914-346 912-336l-47 194q-3 12-12.51 19.5-9.52 7.5-22.2 7.5ZM282-174q-52.2 0-89.1-36.88-36.9-36.87-36.9-89.04 0-26.08 10-49.58t28-40.5q-18.1-17.09-28.05-40.47-9.95-23.37-9.95-49.45 0-26.08 10-49.58t28-40.5q-18.1-17.06-28.05-40.41-9.95-23.35-9.95-49.4 0-51.19 36.88-88.69 36.87-37.5 89.04-37.5 26.08 0 49.58 10.5T372-747q17.09-18.14 40.47-28.57T461.92-786h215.82q51.26 0 88.76 37.33 37.5 37.32 37.5 88.59 0 26.08-10.43 49.52Q783.14-587.13 765-570q24 22 33.5 54t1.5 64q-20-4-39-4t-39 5q19-31 2.5-57T678-534H462q-22.5 0-38.25 15.75T408-480q0 22.5 15.75 38.25T462-426h199q-23 14-42.5 31.5T585-354H462q-22.5 0-38.25 15.75T408-300q0 22.5 15.75 38.25T462-246h90q-1 18 1.5 36.5T561-174h-99q-26.1 0-49.5-9.95T372-212q-17 18-40.27 28-23.27 10-49.73 10Zm0-72q22.5 0 38.25-15.75T336-300q0-22.5-15.75-38.25T282-354q-22.5 0-38.25 15.75T228-300q0 22.5 15.75 38.25T282-246Zm0-180q22.5 0 38.25-15.75T336-480q0-22.5-15.75-38.25T282-534q-22.5 0-38.25 15.75T228-480q0 22.5 15.75 38.25T282-426Zm0-180q22.5 0 38.25-15.75T336-660q0-22.5-15.75-38.25T282-714q-22.5 0-38.25 15.75T228-660q0 22.5 15.75 38.25T282-606Zm180-1h216q22.5 0 38.25-15T732-660q0-23-15.75-38.5T678-714H462q-22.5 0-38.25 15.75T408-660q0 23 15.75 38T462-607Zm-94 217Zm0-180Z"/></svg>