<svg xmlns="http://www.w3.org/2000/svg" height="20px" viewBox="0 -960 960 960" width="20px" fill="#2854C5"><path d="M684-48v-108H576v-72h108v-108h72v108h108v72H756v108h-72ZM216-216v-528 528Zm.37 72Q186-144 165-165.15 144-186.3 144-216v-528q0-29.7 21.15-50.85Q186.3-816 216-816h528q29.7 0 50.85 21.15Q816-773.7 816-744v333q-17-8-35-12.5t-37-6.5v-314H216v528h266q-2 18-1 36t5 36H216.37ZM349.5-298.29q10.5-10.29 10.5-25.5t-10.29-25.71q-10.29-10.5-25.5-10.5t-25.71 10.29q-10.5 10.29-10.5 25.5t10.29 25.71q10.29 10.5 25.5 10.5t25.71-10.29Zm0-156q10.5-10.29 10.5-25.5t-10.29-25.71q-10.29-10.5-25.5-10.5t-25.71 10.29q-10.5 10.29-10.5 25.5t10.29 25.71q10.29 10.5 25.5 10.5t25.71-10.29Zm0-156q10.5-10.29 10.5-25.5t-10.29-25.71q-10.29-10.5-25.5-10.5t-25.71 10.29q-10.5 10.29-10.5 25.5t10.29 25.71q10.29 10.5 25.5 10.5t25.71-10.29ZM432-444h240v-72H432v72Zm0-156h240v-72H432v72Zm0 312h68q9-20 21.5-38t27.5-34H432v72Z"/></svg>