<svg xmlns="http://www.w3.org/2000/svg" height="20px" viewBox="0 -960 960 960" width="20px" fill="#4B77D1"><path d="M695-456 576-575l51-51 68 68 153-152 51 50-204 204Zm-413-66q-42-42-42-102t42-102q42-42 102-42t102 42q42 42 42 102t-42 102q-42 42-102 42t-102-42ZM96-192v-92q0-25.78 12.5-47.39T143-366q55-32 116-49t125-17q64 0 125 17t116 49q22 13 34.5 34.61T672-284v92H96Zm72-72h432v-20q0-6.47-3.03-11.76-3.02-5.3-7.97-8.24-47-27-99-41.5T384-360q-54 0-106 14.5T179-304q-4.95 2.94-7.98 8.24Q168-290.47 168-284v20Zm267-309.21q21-21.21 21-51T434.79-675q-21.21-21-51-21T333-674.79q-21 21.21-21 51T333.21-573q21.21 21 51 21T435-573.21ZM384-312Zm0-312Z"/></svg>